<?xml version="1.0" encoding="UTF-8"?>
<svg xmlns="http://www.w3.org/2000/svg" xmlns:xlink="http://www.w3.org/1999/xlink" width="854" height="480" viewBox="0 0 854 480">
<defs>
<g>
<g id="glyph-0-0">
<path d="M 0.40625 0 L 0.40625 -0.4375 L 0.53125 -0.4375 C 0.695312 -0.4375 0.84375 -0.453125 0.96875 -0.484375 C 1.101562 -0.523438 1.207031 -0.597656 1.28125 -0.703125 C 1.363281 -0.816406 1.40625 -0.984375 1.40625 -1.203125 L 1.40625 -6.375 C 1.40625 -6.59375 1.363281 -6.75 1.28125 -6.84375 C 1.195312 -6.945312 1.085938 -7.015625 0.953125 -7.046875 C 0.828125 -7.078125 0.6875 -7.09375 0.53125 -7.09375 L 0.40625 -7.09375 L 0.40625 -7.546875 L 3.640625 -7.546875 C 4.359375 -7.546875 4.972656 -7.398438 5.484375 -7.109375 C 6.003906 -6.816406 6.398438 -6.390625 6.671875 -5.828125 C 6.941406 -5.265625 7.078125 -4.582031 7.078125 -3.78125 C 7.078125 -3.007812 6.945312 -2.335938 6.6875 -1.765625 C 6.4375 -1.203125 6.054688 -0.765625 5.546875 -0.453125 C 5.035156 -0.148438 4.398438 0 3.640625 0 Z M 3.390625 -0.53125 C 3.953125 -0.53125 4.414062 -0.65625 4.78125 -0.90625 C 5.15625 -1.15625 5.4375 -1.519531 5.625 -2 C 5.8125 -2.488281 5.90625 -3.082031 5.90625 -3.78125 C 5.90625 -4.476562 5.8125 -5.066406 5.625 -5.546875 C 5.4375 -6.023438 5.15625 -6.390625 4.78125 -6.640625 C 4.414062 -6.890625 3.957031 -7.015625 3.40625 -7.015625 L 2.46875 -7.015625 L 2.46875 -0.53125 Z "/>
</g>
<g id="glyph-0-1">
<path d="M 3.03125 0.109375 C 2.257812 0.109375 1.65625 -0.144531 1.21875 -0.65625 C 0.789062 -1.164062 0.578125 -1.875 0.578125 -2.78125 C 0.578125 -3.769531 0.78125 -4.515625 1.1875 -5.015625 C 1.601562 -5.515625 2.179688 -5.765625 2.921875 -5.765625 C 3.609375 -5.765625 4.144531 -5.550781 4.53125 -5.125 C 4.925781 -4.707031 5.125 -4.082031 5.125 -3.25 L 5.125 -2.75 L 1.609375 -2.75 C 1.617188 -1.988281 1.753906 -1.429688 2.015625 -1.078125 C 2.285156 -0.734375 2.671875 -0.5625 3.171875 -0.5625 C 3.546875 -0.5625 3.859375 -0.632812 4.109375 -0.78125 C 4.367188 -0.9375 4.5625 -1.109375 4.6875 -1.296875 C 4.738281 -1.273438 4.785156 -1.234375 4.828125 -1.171875 C 4.867188 -1.109375 4.890625 -1.03125 4.890625 -0.9375 C 4.890625 -0.800781 4.820312 -0.648438 4.6875 -0.484375 C 4.550781 -0.328125 4.347656 -0.1875 4.078125 -0.0625 C 3.804688 0.0507812 3.457031 0.109375 3.03125 0.109375 Z M 4.0625 -3.328125 C 4.0625 -3.890625 3.972656 -4.34375 3.796875 -4.6875 C 3.617188 -5.03125 3.320312 -5.203125 2.90625 -5.203125 C 2.519531 -5.203125 2.21875 -5.039062 2 -4.71875 C 1.78125 -4.394531 1.65625 -3.929688 1.625 -3.328125 Z "/>
</g>
<g id="glyph-0-2">
<path d="M 2.53125 0.109375 C 2 0.109375 1.609375 -0.0078125 1.359375 -0.25 C 1.117188 -0.5 1 -0.925781 1 -1.53125 L 1 -5.0625 L 0.203125 -5.0625 L 0.203125 -5.484375 C 0.328125 -5.484375 0.46875 -5.507812 0.625 -5.5625 C 0.78125 -5.613281 0.914062 -5.695312 1.03125 -5.8125 C 1.144531 -5.945312 1.238281 -6.101562 1.3125 -6.28125 C 1.394531 -6.46875 1.460938 -6.691406 1.515625 -6.953125 L 2 -6.953125 L 2 -5.65625 L 3.375 -5.65625 L 3.375 -5.0625 L 2 -5.0625 L 2 -1.5 C 2 -1.144531 2.070312 -0.878906 2.21875 -0.703125 C 2.363281 -0.535156 2.554688 -0.453125 2.796875 -0.453125 C 2.921875 -0.453125 3.035156 -0.457031 3.140625 -0.46875 C 3.253906 -0.488281 3.363281 -0.507812 3.46875 -0.53125 L 3.46875 -0.0625 C 3.382812 -0.0195312 3.25 0.015625 3.0625 0.046875 C 2.875 0.0859375 2.695312 0.109375 2.53125 0.109375 Z "/>
</g>
<g id="glyph-0-3">
<path d="M 0.34375 0 L 0.34375 -0.4375 L 0.375 -0.4375 C 0.539062 -0.4375 0.6875 -0.453125 0.8125 -0.484375 C 0.945312 -0.523438 1.050781 -0.597656 1.125 -0.703125 C 1.207031 -0.816406 1.25 -0.984375 1.25 -1.203125 L 1.25 -4.5 C 1.25 -4.707031 1.207031 -4.863281 1.125 -4.96875 C 1.039062 -5.070312 0.929688 -5.140625 0.796875 -5.171875 C 0.671875 -5.203125 0.53125 -5.21875 0.375 -5.21875 L 0.34375 -5.21875 L 0.34375 -5.65625 L 1.96875 -5.65625 L 2.171875 -4.609375 L 2.234375 -4.609375 C 2.316406 -4.828125 2.410156 -5.019531 2.515625 -5.1875 C 2.628906 -5.363281 2.773438 -5.503906 2.953125 -5.609375 C 3.128906 -5.710938 3.367188 -5.765625 3.671875 -5.765625 C 4.054688 -5.765625 4.34375 -5.695312 4.53125 -5.5625 C 4.71875 -5.425781 4.8125 -5.238281 4.8125 -5 C 4.8125 -4.78125 4.734375 -4.597656 4.578125 -4.453125 C 4.429688 -4.316406 4.179688 -4.25 3.828125 -4.25 C 3.828125 -4.445312 3.8125 -4.601562 3.78125 -4.71875 C 3.75 -4.84375 3.691406 -4.929688 3.609375 -4.984375 C 3.523438 -5.035156 3.414062 -5.0625 3.28125 -5.0625 C 3.082031 -5.0625 2.914062 -4.984375 2.78125 -4.828125 C 2.644531 -4.679688 2.535156 -4.488281 2.453125 -4.25 C 2.378906 -4.007812 2.320312 -3.757812 2.28125 -3.5 C 2.25 -3.238281 2.234375 -3.007812 2.234375 -2.8125 L 2.234375 -1.15625 C 2.234375 -0.945312 2.273438 -0.789062 2.359375 -0.6875 C 2.441406 -0.582031 2.546875 -0.515625 2.671875 -0.484375 C 2.804688 -0.453125 2.953125 -0.4375 3.109375 -0.4375 L 3.40625 -0.4375 L 3.40625 0 Z "/>
</g>
<g id="glyph-0-4">
<path d="M 0.296875 0 L 0.296875 -0.4375 L 0.4375 -0.4375 C 0.59375 -0.4375 0.726562 -0.453125 0.84375 -0.484375 C 0.96875 -0.523438 1.066406 -0.597656 1.140625 -0.703125 C 1.210938 -0.816406 1.25 -0.984375 1.25 -1.203125 L 1.25 -4.5 C 1.25 -4.707031 1.210938 -4.863281 1.140625 -4.96875 C 1.066406 -5.070312 0.96875 -5.140625 0.84375 -5.171875 C 0.726562 -5.203125 0.59375 -5.21875 0.4375 -5.21875 L 0.40625 -5.21875 L 0.40625 -5.65625 L 2.0625 -5.65625 L 2.203125 -4.8125 L 2.25 -4.8125 C 2.457031 -5.195312 2.691406 -5.453125 2.953125 -5.578125 C 3.222656 -5.703125 3.519531 -5.765625 3.84375 -5.765625 C 4.070312 -5.765625 4.285156 -5.734375 4.484375 -5.671875 C 4.679688 -5.609375 4.859375 -5.507812 5.015625 -5.375 C 5.171875 -5.238281 5.289062 -5.050781 5.375 -4.8125 L 5.453125 -4.8125 C 5.671875 -5.195312 5.921875 -5.453125 6.203125 -5.578125 C 6.492188 -5.703125 6.800781 -5.765625 7.125 -5.765625 C 7.664062 -5.765625 8.085938 -5.597656 8.390625 -5.265625 C 8.691406 -4.941406 8.84375 -4.421875 8.84375 -3.703125 L 8.84375 -1.203125 C 8.84375 -0.984375 8.875 -0.816406 8.9375 -0.703125 C 9.007812 -0.597656 9.109375 -0.523438 9.234375 -0.484375 C 9.359375 -0.453125 9.5 -0.4375 9.65625 -0.4375 L 9.6875 -0.4375 L 9.6875 0 L 7.84375 0 L 7.84375 -3.640625 C 7.84375 -4.097656 7.757812 -4.453125 7.59375 -4.703125 C 7.425781 -4.960938 7.140625 -5.09375 6.734375 -5.09375 C 6.453125 -5.09375 6.222656 -5.019531 6.046875 -4.875 C 5.867188 -4.726562 5.742188 -4.535156 5.671875 -4.296875 C 5.597656 -4.054688 5.5625 -3.796875 5.5625 -3.515625 L 5.5625 -1.203125 C 5.5625 -0.984375 5.597656 -0.816406 5.671875 -0.703125 C 5.742188 -0.597656 5.835938 -0.523438 5.953125 -0.484375 C 6.078125 -0.453125 6.21875 -0.4375 6.375 -0.4375 L 6.40625 -0.4375 L 6.40625 0 L 4.578125 0 L 4.578125 -3.640625 C 4.578125 -4.097656 4.492188 -4.453125 4.328125 -4.703125 C 4.160156 -4.960938 3.875 -5.09375 3.46875 -5.09375 C 3.164062 -5.09375 2.921875 -5.007812 2.734375 -4.84375 C 2.554688 -4.6875 2.425781 -4.476562 2.34375 -4.21875 C 2.269531 -3.957031 2.234375 -3.675781 2.234375 -3.375 L 2.234375 -1.15625 C 2.234375 -0.945312 2.273438 -0.789062 2.359375 -0.6875 C 2.441406 -0.582031 2.546875 -0.515625 2.671875 -0.484375 C 2.804688 -0.453125 2.953125 -0.4375 3.109375 -0.4375 L 3.140625 -0.4375 L 3.140625 0 Z "/>
</g>
<g id="glyph-0-5">
<path d="M 0.25 0 L 0.25 -0.4375 L 0.375 -0.4375 C 0.53125 -0.4375 0.671875 -0.453125 0.796875 -0.484375 C 0.929688 -0.515625 1.039062 -0.582031 1.125 -0.6875 C 1.207031 -0.789062 1.25 -0.945312 1.25 -1.15625 L 1.25 -4.5 C 1.25 -4.707031 1.207031 -4.863281 1.125 -4.96875 C 1.039062 -5.070312 0.929688 -5.140625 0.796875 -5.171875 C 0.671875 -5.203125 0.53125 -5.21875 0.375 -5.21875 L 0.34375 -5.21875 L 0.34375 -5.65625 L 2.234375 -5.65625 L 2.234375 -1.203125 C 2.234375 -0.984375 2.269531 -0.816406 2.34375 -0.703125 C 2.425781 -0.597656 2.535156 -0.523438 2.671875 -0.484375 C 2.804688 -0.453125 2.953125 -0.4375 3.109375 -0.4375 L 3.25 -0.4375 L 3.25 0 Z M 1.703125 -6.71875 C 1.535156 -6.71875 1.390625 -6.765625 1.265625 -6.859375 C 1.148438 -6.960938 1.09375 -7.132812 1.09375 -7.375 C 1.09375 -7.625 1.148438 -7.796875 1.265625 -7.890625 C 1.390625 -7.984375 1.535156 -8.03125 1.703125 -8.03125 C 1.859375 -8.03125 1.992188 -7.984375 2.109375 -7.890625 C 2.234375 -7.796875 2.296875 -7.625 2.296875 -7.375 C 2.296875 -7.132812 2.234375 -6.960938 2.109375 -6.859375 C 1.992188 -6.765625 1.859375 -6.71875 1.703125 -6.71875 Z "/>
</g>
<g id="glyph-0-6">
<path d="M 0.296875 0 L 0.296875 -0.4375 L 0.375 -0.4375 C 0.539062 -0.4375 0.6875 -0.453125 0.8125 -0.484375 C 0.945312 -0.523438 1.050781 -0.597656 1.125 -0.703125 C 1.207031 -0.816406 1.25 -0.984375 1.25 -1.203125 L 1.25 -4.5 C 1.25 -4.707031 1.207031 -4.863281 1.125 -4.96875 C 1.050781 -5.070312 0.953125 -5.140625 0.828125 -5.171875 C 0.703125 -5.203125 0.5625 -5.21875 0.40625 -5.21875 L 0.34375 -5.21875 L 0.34375 -5.65625 L 2.0625 -5.65625 L 2.203125 -4.8125 L 2.25 -4.8125 C 2.46875 -5.195312 2.710938 -5.453125 2.984375 -5.578125 C 3.253906 -5.703125 3.554688 -5.765625 3.890625 -5.765625 C 4.453125 -5.765625 4.890625 -5.597656 5.203125 -5.265625 C 5.515625 -4.941406 5.671875 -4.421875 5.671875 -3.703125 L 5.671875 -1.203125 C 5.671875 -0.984375 5.703125 -0.816406 5.765625 -0.703125 C 5.835938 -0.597656 5.929688 -0.523438 6.046875 -0.484375 C 6.171875 -0.453125 6.3125 -0.4375 6.46875 -0.4375 L 6.515625 -0.4375 L 6.515625 0 L 4.671875 0 L 4.671875 -3.640625 C 4.671875 -4.097656 4.582031 -4.453125 4.40625 -4.703125 C 4.238281 -4.960938 3.941406 -5.09375 3.515625 -5.09375 C 3.203125 -5.09375 2.953125 -5.007812 2.765625 -4.84375 C 2.578125 -4.6875 2.441406 -4.476562 2.359375 -4.21875 C 2.273438 -3.957031 2.234375 -3.675781 2.234375 -3.375 L 2.234375 -1.15625 C 2.234375 -0.945312 2.269531 -0.789062 2.34375 -0.6875 C 2.425781 -0.582031 2.53125 -0.515625 2.65625 -0.484375 C 2.789062 -0.453125 2.929688 -0.4375 3.078125 -0.4375 L 3.140625 -0.4375 L 3.140625 0 Z "/>
</g>
<g id="glyph-0-7">
<path d="M 2.171875 0.109375 C 1.859375 0.109375 1.578125 0.046875 1.328125 -0.078125 C 1.078125 -0.203125 0.878906 -0.390625 0.734375 -0.640625 C 0.597656 -0.890625 0.53125 -1.203125 0.53125 -1.578125 C 0.53125 -2.140625 0.726562 -2.554688 1.125 -2.828125 C 1.519531 -3.097656 2.125 -3.25 2.9375 -3.28125 L 3.8125 -3.3125 L 3.8125 -3.9375 C 3.8125 -4.1875 3.789062 -4.410156 3.75 -4.609375 C 3.707031 -4.804688 3.613281 -4.957031 3.46875 -5.0625 C 3.332031 -5.175781 3.117188 -5.234375 2.828125 -5.234375 C 2.554688 -5.234375 2.347656 -5.179688 2.203125 -5.078125 C 2.066406 -4.984375 1.976562 -4.847656 1.9375 -4.671875 C 1.894531 -4.503906 1.875 -4.3125 1.875 -4.09375 C 1.570312 -4.09375 1.34375 -4.140625 1.1875 -4.234375 C 1.039062 -4.335938 0.96875 -4.507812 0.96875 -4.75 C 0.96875 -5 1.050781 -5.195312 1.21875 -5.34375 C 1.394531 -5.488281 1.628906 -5.59375 1.921875 -5.65625 C 2.210938 -5.726562 2.53125 -5.765625 2.875 -5.765625 C 3.519531 -5.765625 4.003906 -5.625 4.328125 -5.34375 C 4.648438 -5.070312 4.8125 -4.601562 4.8125 -3.9375 L 4.8125 -1.203125 C 4.8125 -1.003906 4.832031 -0.847656 4.875 -0.734375 C 4.914062 -0.628906 4.984375 -0.550781 5.078125 -0.5 C 5.179688 -0.457031 5.304688 -0.4375 5.453125 -0.4375 L 5.5 -0.4375 L 5.5 0 L 4.0625 0 L 3.890625 -0.90625 L 3.8125 -0.90625 C 3.664062 -0.707031 3.519531 -0.53125 3.375 -0.375 C 3.238281 -0.226562 3.078125 -0.109375 2.890625 -0.015625 C 2.703125 0.0664062 2.460938 0.109375 2.171875 0.109375 Z M 2.40625 -0.546875 C 2.695312 -0.546875 2.945312 -0.601562 3.15625 -0.71875 C 3.363281 -0.84375 3.523438 -1.015625 3.640625 -1.234375 C 3.753906 -1.460938 3.8125 -1.722656 3.8125 -2.015625 L 3.8125 -2.875 L 3.140625 -2.84375 C 2.734375 -2.820312 2.414062 -2.757812 2.1875 -2.65625 C 1.957031 -2.550781 1.789062 -2.40625 1.6875 -2.21875 C 1.59375 -2.03125 1.546875 -1.800781 1.546875 -1.53125 C 1.546875 -1.3125 1.578125 -1.128906 1.640625 -0.984375 C 1.710938 -0.835938 1.8125 -0.726562 1.9375 -0.65625 C 2.0625 -0.582031 2.21875 -0.546875 2.40625 -0.546875 Z M 2.421875 -6.53125 C 2.523438 -6.664062 2.632812 -6.820312 2.75 -7 C 2.863281 -7.1875 2.972656 -7.375 3.078125 -7.5625 C 3.179688 -7.757812 3.269531 -7.9375 3.34375 -8.09375 L 4.46875 -8.09375 L 4.46875 -7.984375 C 4.40625 -7.890625 4.3125 -7.769531 4.1875 -7.625 C 4.0625 -7.488281 3.914062 -7.34375 3.75 -7.1875 C 3.59375 -7.03125 3.429688 -6.882812 3.265625 -6.75 C 3.109375 -6.613281 2.960938 -6.5 2.828125 -6.40625 L 2.421875 -6.40625 Z "/>
</g>
<g id="glyph-0-8">
<path d="M 2.21875 0.109375 C 1.863281 0.109375 1.554688 0.0664062 1.296875 -0.015625 C 1.035156 -0.0976562 0.832031 -0.222656 0.6875 -0.390625 C 0.539062 -0.554688 0.46875 -0.765625 0.46875 -1.015625 C 0.46875 -1.203125 0.503906 -1.347656 0.578125 -1.453125 C 0.660156 -1.554688 0.753906 -1.628906 0.859375 -1.671875 C 0.960938 -1.722656 1.054688 -1.75 1.140625 -1.75 C 1.140625 -1.375 1.222656 -1.054688 1.390625 -0.796875 C 1.554688 -0.535156 1.851562 -0.40625 2.28125 -0.40625 C 2.65625 -0.40625 2.941406 -0.492188 3.140625 -0.671875 C 3.335938 -0.847656 3.4375 -1.078125 3.4375 -1.359375 C 3.4375 -1.535156 3.398438 -1.679688 3.328125 -1.796875 C 3.253906 -1.910156 3.125 -2.019531 2.9375 -2.125 C 2.75 -2.238281 2.484375 -2.367188 2.140625 -2.515625 C 1.785156 -2.671875 1.488281 -2.828125 1.25 -2.984375 C 1.007812 -3.140625 0.832031 -3.316406 0.71875 -3.515625 C 0.601562 -3.710938 0.546875 -3.960938 0.546875 -4.265625 C 0.546875 -4.742188 0.726562 -5.109375 1.09375 -5.359375 C 1.457031 -5.617188 1.9375 -5.75 2.53125 -5.75 C 2.875 -5.75 3.160156 -5.707031 3.390625 -5.625 C 3.617188 -5.539062 3.789062 -5.421875 3.90625 -5.265625 C 4.019531 -5.117188 4.078125 -4.957031 4.078125 -4.78125 C 4.078125 -4.59375 4.007812 -4.441406 3.875 -4.328125 C 3.75 -4.210938 3.5625 -4.15625 3.3125 -4.15625 C 3.3125 -4.5 3.238281 -4.769531 3.09375 -4.96875 C 2.945312 -5.164062 2.71875 -5.265625 2.40625 -5.265625 C 2.050781 -5.265625 1.796875 -5.1875 1.640625 -5.03125 C 1.484375 -4.875 1.40625 -4.671875 1.40625 -4.421875 C 1.40625 -4.160156 1.503906 -3.957031 1.703125 -3.8125 C 1.898438 -3.664062 2.238281 -3.5 2.71875 -3.3125 C 3.09375 -3.15625 3.394531 -3 3.625 -2.84375 C 3.851562 -2.6875 4.019531 -2.503906 4.125 -2.296875 C 4.238281 -2.097656 4.296875 -1.847656 4.296875 -1.546875 C 4.296875 -1.003906 4.101562 -0.59375 3.71875 -0.3125 C 3.34375 -0.03125 2.84375 0.109375 2.21875 0.109375 Z "/>
</g>
<g id="glyph-0-9">
</g>
<g id="glyph-0-10">
<path d="M 0.6875 -4.5 L 0.6875 -5.125 L 5.21875 -5.125 L 5.21875 -4.5 Z M 0.6875 -2.421875 L 0.6875 -3.046875 L 5.21875 -3.046875 L 5.21875 -2.421875 Z "/>
</g>
<g id="glyph-0-11">
<path d="M 0.140625 0 L 0.140625 -0.4375 L 0.28125 -0.4375 C 0.4375 -0.4375 0.578125 -0.453125 0.703125 -0.484375 C 0.835938 -0.523438 0.941406 -0.597656 1.015625 -0.703125 C 1.097656 -0.816406 1.140625 -0.984375 1.140625 -1.203125 L 1.140625 -6.859375 C 1.140625 -7.078125 1.097656 -7.234375 1.015625 -7.328125 C 0.929688 -7.429688 0.820312 -7.5 0.6875 -7.53125 C 0.5625 -7.5625 0.425781 -7.578125 0.28125 -7.578125 L 0.140625 -7.578125 L 0.140625 -8.03125 L 2.140625 -8.03125 L 2.140625 -1.203125 C 2.140625 -0.984375 2.175781 -0.816406 2.25 -0.703125 C 2.320312 -0.597656 2.425781 -0.523438 2.5625 -0.484375 C 2.695312 -0.453125 2.84375 -0.4375 3 -0.4375 L 3.140625 -0.4375 L 3.140625 0 Z "/>
</g>
<g id="glyph-0-12">
<path d="M 3.03125 0.109375 C 2.269531 0.109375 1.671875 -0.132812 1.234375 -0.625 C 0.796875 -1.113281 0.578125 -1.851562 0.578125 -2.84375 C 0.578125 -3.820312 0.785156 -4.550781 1.203125 -5.03125 C 1.628906 -5.519531 2.25 -5.765625 3.0625 -5.765625 C 3.820312 -5.765625 4.421875 -5.519531 4.859375 -5.03125 C 5.296875 -4.550781 5.515625 -3.820312 5.515625 -2.84375 C 5.515625 -1.851562 5.300781 -1.113281 4.875 -0.625 C 4.457031 -0.132812 3.84375 0.109375 3.03125 0.109375 Z M 3.046875 -0.4375 C 3.398438 -0.4375 3.679688 -0.523438 3.890625 -0.703125 C 4.109375 -0.890625 4.257812 -1.160156 4.34375 -1.515625 C 4.4375 -1.878906 4.484375 -2.320312 4.484375 -2.84375 C 4.484375 -3.632812 4.375 -4.222656 4.15625 -4.609375 C 3.9375 -5.003906 3.566406 -5.203125 3.046875 -5.203125 C 2.515625 -5.203125 2.140625 -5.003906 1.921875 -4.609375 C 1.710938 -4.222656 1.609375 -3.632812 1.609375 -2.84375 C 1.609375 -2.050781 1.71875 -1.453125 1.9375 -1.046875 C 2.15625 -0.640625 2.523438 -0.4375 3.046875 -0.4375 Z M 3.34375 -6.53125 C 3.488281 -6.757812 3.644531 -7.015625 3.8125 -7.296875 C 3.976562 -7.585938 4.117188 -7.851562 4.234375 -8.09375 L 5.375 -8.09375 L 5.375 -7.984375 C 5.300781 -7.867188 5.171875 -7.707031 4.984375 -7.5 C 4.804688 -7.289062 4.613281 -7.085938 4.40625 -6.890625 C 4.195312 -6.691406 4.015625 -6.53125 3.859375 -6.40625 L 3.34375 -6.40625 Z M 1.4375 -6.53125 C 1.582031 -6.757812 1.738281 -7.015625 1.90625 -7.296875 C 2.082031 -7.585938 2.222656 -7.851562 2.328125 -8.09375 L 3.46875 -8.09375 L 3.46875 -7.984375 C 3.394531 -7.867188 3.265625 -7.707031 3.078125 -7.5 C 2.898438 -7.289062 2.707031 -7.085938 2.5 -6.890625 C 2.300781 -6.691406 2.117188 -6.53125 1.953125 -6.40625 L 1.4375 -6.40625 Z "/>
</g>
<g id="glyph-0-13">
<path d="M -0.125 2.53125 L -0.125 2.03125 L -0.046875 2.03125 C 0.203125 2.03125 0.414062 1.972656 0.59375 1.859375 C 0.769531 1.742188 0.90625 1.539062 1 1.25 C 1.09375 0.96875 1.140625 0.582031 1.140625 0.09375 L 1.140625 -4.5 C 1.140625 -4.707031 1.097656 -4.863281 1.015625 -4.96875 C 0.929688 -5.070312 0.820312 -5.140625 0.6875 -5.171875 C 0.5625 -5.203125 0.425781 -5.21875 0.28125 -5.21875 L 0.25 -5.21875 L 0.25 -5.65625 L 2.140625 -5.65625 L 2.140625 0.078125 C 2.140625 0.710938 2.046875 1.207031 1.859375 1.5625 C 1.679688 1.925781 1.4375 2.175781 1.125 2.3125 C 0.8125 2.457031 0.453125 2.53125 0.046875 2.53125 Z M 1.59375 -6.71875 C 1.425781 -6.71875 1.285156 -6.765625 1.171875 -6.859375 C 1.054688 -6.960938 1 -7.132812 1 -7.375 C 1 -7.625 1.054688 -7.796875 1.171875 -7.890625 C 1.285156 -7.984375 1.425781 -8.03125 1.59375 -8.03125 C 1.757812 -8.03125 1.898438 -7.984375 2.015625 -7.890625 C 2.140625 -7.796875 2.203125 -7.625 2.203125 -7.375 C 2.203125 -7.132812 2.140625 -6.960938 2.015625 -6.859375 C 1.898438 -6.765625 1.757812 -6.71875 1.59375 -6.71875 Z "/>
</g>
<g id="glyph-0-14">
<path d="M 2.890625 0.109375 C 2.328125 0.109375 1.894531 -0.0507812 1.59375 -0.375 C 1.289062 -0.707031 1.140625 -1.238281 1.140625 -1.96875 L 1.140625 -4.5 C 1.140625 -4.707031 1.097656 -4.863281 1.015625 -4.96875 C 0.929688 -5.070312 0.820312 -5.140625 0.6875 -5.171875 C 0.5625 -5.203125 0.425781 -5.21875 0.28125 -5.21875 L 0.25 -5.21875 L 0.25 -5.65625 L 2.140625 -5.65625 L 2.140625 -2.015625 C 2.140625 -1.710938 2.171875 -1.453125 2.234375 -1.234375 C 2.296875 -1.015625 2.40625 -0.847656 2.5625 -0.734375 C 2.726562 -0.628906 2.957031 -0.578125 3.25 -0.578125 C 3.550781 -0.578125 3.800781 -0.644531 4 -0.78125 C 4.195312 -0.925781 4.34375 -1.128906 4.4375 -1.390625 C 4.53125 -1.648438 4.578125 -1.945312 4.578125 -2.28125 L 4.578125 -4.453125 C 4.578125 -4.679688 4.535156 -4.847656 4.453125 -4.953125 C 4.378906 -5.054688 4.273438 -5.125 4.140625 -5.15625 C 4.015625 -5.195312 3.867188 -5.21875 3.703125 -5.21875 L 3.671875 -5.21875 L 3.671875 -5.65625 L 5.5625 -5.65625 L 5.5625 -1.15625 C 5.5625 -0.945312 5.601562 -0.789062 5.6875 -0.6875 C 5.769531 -0.582031 5.875 -0.515625 6 -0.484375 C 6.132812 -0.453125 6.28125 -0.4375 6.4375 -0.4375 L 6.46875 -0.4375 L 6.46875 0 L 4.78125 0 L 4.640625 -0.859375 L 4.59375 -0.859375 C 4.375 -0.460938 4.117188 -0.203125 3.828125 -0.078125 C 3.546875 0.046875 3.234375 0.109375 2.890625 0.109375 Z M 4.34375 -6.671875 C 4.1875 -6.671875 4.054688 -6.710938 3.953125 -6.796875 C 3.847656 -6.890625 3.796875 -7.046875 3.796875 -7.265625 C 3.796875 -7.492188 3.847656 -7.648438 3.953125 -7.734375 C 4.054688 -7.816406 4.1875 -7.859375 4.34375 -7.859375 C 4.488281 -7.859375 4.613281 -7.816406 4.71875 -7.734375 C 4.820312 -7.648438 4.875 -7.492188 4.875 -7.265625 C 4.875 -7.046875 4.820312 -6.890625 4.71875 -6.796875 C 4.613281 -6.710938 4.488281 -6.671875 4.34375 -6.671875 Z M 2.328125 -6.671875 C 2.179688 -6.671875 2.054688 -6.710938 1.953125 -6.796875 C 1.847656 -6.890625 1.796875 -7.046875 1.796875 -7.265625 C 1.796875 -7.492188 1.847656 -7.648438 1.953125 -7.734375 C 2.054688 -7.816406 2.179688 -7.859375 2.328125 -7.859375 C 2.484375 -7.859375 2.613281 -7.816406 2.71875 -7.734375 C 2.820312 -7.648438 2.875 -7.492188 2.875 -7.265625 C 2.875 -7.046875 2.820312 -6.890625 2.71875 -6.796875 C 2.613281 -6.710938 2.484375 -6.671875 2.328125 -6.671875 Z "/>
</g>
<g id="glyph-0-15">
<path d="M 0.828125 -4.65625 C 0.773438 -4.800781 0.710938 -4.914062 0.640625 -5 C 0.578125 -5.082031 0.5 -5.140625 0.40625 -5.171875 C 0.3125 -5.203125 0.191406 -5.21875 0.046875 -5.21875 L 0.046875 -5.65625 L 2.6875 -5.65625 L 2.6875 -5.21875 L 2.546875 -5.21875 C 2.335938 -5.21875 2.175781 -5.175781 2.0625 -5.09375 C 1.957031 -5.007812 1.90625 -4.878906 1.90625 -4.703125 C 1.90625 -4.648438 1.910156 -4.59375 1.921875 -4.53125 C 1.941406 -4.46875 1.96875 -4.394531 2 -4.3125 L 2.71875 -2.328125 C 2.78125 -2.148438 2.84375 -1.960938 2.90625 -1.765625 C 2.96875 -1.566406 3.023438 -1.375 3.078125 -1.1875 C 3.128906 -1.007812 3.175781 -0.859375 3.21875 -0.734375 C 3.25 -0.890625 3.320312 -1.109375 3.4375 -1.390625 C 3.550781 -1.671875 3.648438 -1.9375 3.734375 -2.1875 L 4.5 -4.25 C 4.53125 -4.332031 4.550781 -4.410156 4.5625 -4.484375 C 4.582031 -4.566406 4.59375 -4.640625 4.59375 -4.703125 C 4.59375 -4.878906 4.535156 -5.007812 4.421875 -5.09375 C 4.304688 -5.175781 4.128906 -5.21875 3.890625 -5.21875 L 3.828125 -5.21875 L 3.828125 -5.65625 L 6.078125 -5.65625 L 6.078125 -5.21875 L 5.953125 -5.21875 C 5.816406 -5.21875 5.707031 -5.195312 5.625 -5.15625 C 5.539062 -5.113281 5.460938 -5.03125 5.390625 -4.90625 C 5.316406 -4.789062 5.238281 -4.617188 5.15625 -4.390625 L 3.484375 0 L 2.53125 0 Z "/>
</g>
<g id="glyph-0-16">
<path d="M 3.03125 0.109375 C 2.269531 0.109375 1.671875 -0.132812 1.234375 -0.625 C 0.796875 -1.113281 0.578125 -1.851562 0.578125 -2.84375 C 0.578125 -3.820312 0.785156 -4.550781 1.203125 -5.03125 C 1.628906 -5.519531 2.25 -5.765625 3.0625 -5.765625 C 3.820312 -5.765625 4.421875 -5.519531 4.859375 -5.03125 C 5.296875 -4.550781 5.515625 -3.820312 5.515625 -2.84375 C 5.515625 -1.851562 5.300781 -1.113281 4.875 -0.625 C 4.457031 -0.132812 3.84375 0.109375 3.03125 0.109375 Z M 3.046875 -0.4375 C 3.398438 -0.4375 3.679688 -0.523438 3.890625 -0.703125 C 4.109375 -0.890625 4.257812 -1.160156 4.34375 -1.515625 C 4.4375 -1.878906 4.484375 -2.320312 4.484375 -2.84375 C 4.484375 -3.632812 4.375 -4.222656 4.15625 -4.609375 C 3.9375 -5.003906 3.566406 -5.203125 3.046875 -5.203125 C 2.515625 -5.203125 2.140625 -5.003906 1.921875 -4.609375 C 1.710938 -4.222656 1.609375 -3.632812 1.609375 -2.84375 C 1.609375 -2.050781 1.71875 -1.453125 1.9375 -1.046875 C 2.15625 -0.640625 2.523438 -0.4375 3.046875 -0.4375 Z "/>
</g>
<g id="glyph-0-17">
<path d="M 0.4375 0 L 0.4375 -0.421875 L 3.5 -5.0625 L 1.859375 -5.0625 C 1.578125 -5.0625 1.390625 -4.988281 1.296875 -4.84375 C 1.203125 -4.695312 1.117188 -4.484375 1.046875 -4.203125 L 1.03125 -4.15625 L 0.59375 -4.15625 L 0.703125 -5.65625 L 4.75 -5.65625 L 4.75 -5.234375 L 1.671875 -0.609375 L 3.59375 -0.609375 C 3.832031 -0.609375 4 -0.691406 4.09375 -0.859375 C 4.1875 -1.035156 4.257812 -1.238281 4.3125 -1.46875 L 4.359375 -1.71875 L 4.8125 -1.71875 L 4.75 0 Z "/>
</g>
</g>
</defs>
<g fill="rgb(100%, 100%, 100%)" fill-opacity="1">
<use xlink:href="#glyph-0-0" x="30" y="31.28418"/>
<use xlink:href="#glyph-0-1" x="38" y="31.28418"/>
<use xlink:href="#glyph-0-2" x="44" y="31.28418"/>
<use xlink:href="#glyph-0-1" x="48" y="31.28418"/>
<use xlink:href="#glyph-0-3" x="54" y="31.28418"/>
<use xlink:href="#glyph-0-4" x="59" y="31.28418"/>
<use xlink:href="#glyph-0-5" x="69" y="31.28418"/>
<use xlink:href="#glyph-0-6" x="72" y="31.28418"/>
<use xlink:href="#glyph-0-7" x="79" y="31.28418"/>
<use xlink:href="#glyph-0-6" x="85" y="31.28418"/>
<use xlink:href="#glyph-0-8" x="92" y="31.28418"/>
<use xlink:href="#glyph-0-9" x="97" y="31.28418"/>
<use xlink:href="#glyph-0-10" x="100" y="31.28418"/>
<use xlink:href="#glyph-0-9" x="106" y="31.28418"/>
<use xlink:href="#glyph-0-1" x="109" y="31.28418"/>
<use xlink:href="#glyph-0-11" x="115" y="31.28418"/>
<use xlink:href="#glyph-0-12" x="118" y="31.28418"/>
<use xlink:href="#glyph-0-13" x="124" y="31.28418"/>
<use xlink:href="#glyph-0-1" x="127" y="31.28418"/>
<use xlink:href="#glyph-0-11" x="133" y="31.28418"/>
<use xlink:href="#glyph-0-1" x="136" y="31.28418"/>
<use xlink:href="#glyph-0-8" x="142" y="31.28418"/>
<use xlink:href="#glyph-0-9" x="147" y="31.28418"/>
<use xlink:href="#glyph-0-2" x="150" y="31.28418"/>
<use xlink:href="#glyph-0-1" x="154" y="31.28418"/>
<use xlink:href="#glyph-0-3" x="160" y="31.28418"/>
<use xlink:href="#glyph-0-14" x="165" y="31.28418"/>
<use xlink:href="#glyph-0-11" x="172" y="31.28418"/>
<use xlink:href="#glyph-0-1" x="175" y="31.28418"/>
<use xlink:href="#glyph-0-2" x="181" y="31.28418"/>
<use xlink:href="#glyph-0-15" x="185" y="31.28418"/>
<use xlink:href="#glyph-0-7" x="191" y="31.28418"/>
<use xlink:href="#glyph-0-11" x="197" y="31.28418"/>
<use xlink:href="#glyph-0-2" x="200" y="31.28418"/>
<use xlink:href="#glyph-0-16" x="204" y="31.28418"/>
<use xlink:href="#glyph-0-17" x="210" y="31.28418"/>
<use xlink:href="#glyph-0-7" x="215" y="31.28418"/>
<use xlink:href="#glyph-0-8" x="221" y="31.28418"/>
</g>
</svg>
