<?xml version="1.0" encoding="UTF-8"?>
<svg xmlns="http://www.w3.org/2000/svg" xmlns:xlink="http://www.w3.org/1999/xlink" width="854" height="480" viewBox="0 0 854 480">
<defs>
<g>
<g id="glyph-0-0">
<path d="M 2.328125 0.09375 C 2.023438 0.09375 1.753906 0.0625 1.515625 0 C 1.273438 -0.0625 1.078125 -0.148438 0.921875 -0.265625 C 0.765625 -0.390625 0.644531 -0.53125 0.5625 -0.6875 C 0.488281 -0.851562 0.453125 -1.035156 0.453125 -1.234375 C 0.453125 -1.359375 0.476562 -1.46875 0.53125 -1.5625 C 0.582031 -1.65625 0.660156 -1.726562 0.765625 -1.78125 C 0.867188 -1.84375 0.988281 -1.875 1.125 -1.875 C 1.144531 -1.613281 1.195312 -1.367188 1.28125 -1.140625 C 1.375 -0.910156 1.507812 -0.722656 1.6875 -0.578125 C 1.875 -0.441406 2.113281 -0.375 2.40625 -0.375 C 2.820312 -0.375 3.148438 -0.472656 3.390625 -0.671875 C 3.628906 -0.878906 3.75 -1.175781 3.75 -1.5625 C 3.75 -1.789062 3.703125 -1.984375 3.609375 -2.140625 C 3.523438 -2.304688 3.375 -2.457031 3.15625 -2.59375 C 2.945312 -2.726562 2.660156 -2.875 2.296875 -3.03125 C 1.898438 -3.195312 1.570312 -3.375 1.3125 -3.5625 C 1.0625 -3.75 0.875 -3.96875 0.75 -4.21875 C 0.625 -4.476562 0.5625 -4.78125 0.5625 -5.125 C 0.5625 -5.476562 0.648438 -5.78125 0.828125 -6.03125 C 1.003906 -6.289062 1.25 -6.488281 1.5625 -6.625 C 1.875 -6.757812 2.226562 -6.828125 2.625 -6.828125 C 3 -6.828125 3.316406 -6.773438 3.578125 -6.671875 C 3.835938 -6.578125 4.035156 -6.445312 4.171875 -6.28125 C 4.316406 -6.125 4.390625 -5.957031 4.390625 -5.78125 C 4.390625 -5.570312 4.320312 -5.414062 4.1875 -5.3125 C 4.050781 -5.207031 3.867188 -5.15625 3.640625 -5.15625 C 3.640625 -5.351562 3.601562 -5.539062 3.53125 -5.71875 C 3.46875 -5.90625 3.359375 -6.054688 3.203125 -6.171875 C 3.054688 -6.296875 2.847656 -6.359375 2.578125 -6.359375 C 2.210938 -6.359375 1.929688 -6.257812 1.734375 -6.0625 C 1.535156 -5.875 1.4375 -5.613281 1.4375 -5.28125 C 1.4375 -5.03125 1.476562 -4.816406 1.5625 -4.640625 C 1.65625 -4.472656 1.804688 -4.320312 2.015625 -4.1875 C 2.234375 -4.050781 2.523438 -3.90625 2.890625 -3.75 C 3.265625 -3.601562 3.582031 -3.4375 3.84375 -3.25 C 4.101562 -3.070312 4.300781 -2.867188 4.4375 -2.640625 C 4.582031 -2.410156 4.65625 -2.128906 4.65625 -1.796875 C 4.65625 -1.398438 4.5625 -1.0625 4.375 -0.78125 C 4.1875 -0.5 3.914062 -0.28125 3.5625 -0.125 C 3.207031 0.0195312 2.796875 0.09375 2.328125 0.09375 Z "/>
</g>
<g id="glyph-0-1">
<path d="M 1.9375 0.09375 C 1.65625 0.09375 1.398438 0.0390625 1.171875 -0.0625 C 0.953125 -0.175781 0.78125 -0.34375 0.65625 -0.5625 C 0.53125 -0.789062 0.46875 -1.078125 0.46875 -1.421875 C 0.46875 -1.921875 0.644531 -2.289062 1 -2.53125 C 1.351562 -2.769531 1.894531 -2.898438 2.625 -2.921875 L 3.40625 -2.953125 L 3.40625 -3.515625 C 3.40625 -3.742188 3.382812 -3.941406 3.34375 -4.109375 C 3.3125 -4.285156 3.234375 -4.425781 3.109375 -4.53125 C 2.984375 -4.632812 2.789062 -4.6875 2.53125 -4.6875 C 2.289062 -4.6875 2.109375 -4.640625 1.984375 -4.546875 C 1.859375 -4.460938 1.773438 -4.34375 1.734375 -4.1875 C 1.691406 -4.03125 1.671875 -3.851562 1.671875 -3.65625 C 1.410156 -3.65625 1.210938 -3.695312 1.078125 -3.78125 C 0.941406 -3.875 0.875 -4.03125 0.875 -4.25 C 0.875 -4.46875 0.945312 -4.640625 1.09375 -4.765625 C 1.25 -4.898438 1.457031 -5 1.71875 -5.0625 C 1.976562 -5.125 2.257812 -5.15625 2.5625 -5.15625 C 3.144531 -5.15625 3.578125 -5.03125 3.859375 -4.78125 C 4.148438 -4.539062 4.296875 -4.117188 4.296875 -3.515625 L 4.296875 -1.078125 C 4.296875 -0.898438 4.3125 -0.757812 4.34375 -0.65625 C 4.382812 -0.5625 4.445312 -0.492188 4.53125 -0.453125 C 4.625 -0.410156 4.738281 -0.390625 4.875 -0.390625 L 4.90625 -0.390625 L 4.90625 0 L 3.640625 0 L 3.484375 -0.8125 L 3.40625 -0.8125 C 3.269531 -0.632812 3.140625 -0.476562 3.015625 -0.34375 C 2.890625 -0.207031 2.742188 -0.0976562 2.578125 -0.015625 C 2.410156 0.0546875 2.195312 0.09375 1.9375 0.09375 Z M 2.15625 -0.484375 C 2.40625 -0.484375 2.625 -0.535156 2.8125 -0.640625 C 3 -0.753906 3.144531 -0.910156 3.25 -1.109375 C 3.351562 -1.304688 3.40625 -1.535156 3.40625 -1.796875 L 3.40625 -2.5625 L 2.796875 -2.53125 C 2.441406 -2.519531 2.160156 -2.46875 1.953125 -2.375 C 1.753906 -2.28125 1.609375 -2.148438 1.515625 -1.984375 C 1.429688 -1.816406 1.390625 -1.613281 1.390625 -1.375 C 1.390625 -1.175781 1.414062 -1.007812 1.46875 -0.875 C 1.53125 -0.75 1.613281 -0.648438 1.71875 -0.578125 C 1.832031 -0.515625 1.976562 -0.484375 2.15625 -0.484375 Z "/>
</g>
<g id="glyph-0-2">
<path d="M -0.109375 2.265625 L -0.109375 1.828125 L -0.046875 1.828125 C 0.179688 1.828125 0.375 1.773438 0.53125 1.671875 C 0.695312 1.566406 0.816406 1.382812 0.890625 1.125 C 0.972656 0.875 1.015625 0.523438 1.015625 0.078125 L 1.015625 -4.015625 C 1.015625 -4.203125 0.976562 -4.34375 0.90625 -4.4375 C 0.832031 -4.53125 0.738281 -4.585938 0.625 -4.609375 C 0.507812 -4.640625 0.382812 -4.65625 0.25 -4.65625 L 0.21875 -4.65625 L 0.21875 -5.0625 L 1.90625 -5.0625 L 1.90625 0.078125 C 1.90625 0.640625 1.820312 1.078125 1.65625 1.390625 C 1.5 1.710938 1.28125 1.9375 1 2.0625 C 0.71875 2.195312 0.394531 2.265625 0.03125 2.265625 Z M 1.421875 -6 C 1.273438 -6 1.148438 -6.039062 1.046875 -6.125 C 0.941406 -6.21875 0.890625 -6.375 0.890625 -6.59375 C 0.890625 -6.8125 0.941406 -6.960938 1.046875 -7.046875 C 1.148438 -7.128906 1.273438 -7.171875 1.421875 -7.171875 C 1.566406 -7.171875 1.691406 -7.128906 1.796875 -7.046875 C 1.910156 -6.960938 1.96875 -6.8125 1.96875 -6.59375 C 1.96875 -6.375 1.910156 -6.21875 1.796875 -6.125 C 1.691406 -6.039062 1.566406 -6 1.421875 -6 Z "/>
</g>
<g id="glyph-0-3">
<path d="M 1.9375 0.09375 C 1.65625 0.09375 1.398438 0.0390625 1.171875 -0.0625 C 0.953125 -0.175781 0.78125 -0.34375 0.65625 -0.5625 C 0.53125 -0.789062 0.46875 -1.078125 0.46875 -1.421875 C 0.46875 -1.921875 0.644531 -2.289062 1 -2.53125 C 1.351562 -2.769531 1.894531 -2.898438 2.625 -2.921875 L 3.40625 -2.953125 L 3.40625 -3.515625 C 3.40625 -3.742188 3.382812 -3.941406 3.34375 -4.109375 C 3.3125 -4.285156 3.234375 -4.425781 3.109375 -4.53125 C 2.984375 -4.632812 2.789062 -4.6875 2.53125 -4.6875 C 2.289062 -4.6875 2.109375 -4.640625 1.984375 -4.546875 C 1.859375 -4.460938 1.773438 -4.34375 1.734375 -4.1875 C 1.691406 -4.03125 1.671875 -3.851562 1.671875 -3.65625 C 1.410156 -3.65625 1.210938 -3.695312 1.078125 -3.78125 C 0.941406 -3.875 0.875 -4.03125 0.875 -4.25 C 0.875 -4.46875 0.945312 -4.640625 1.09375 -4.765625 C 1.25 -4.898438 1.457031 -5 1.71875 -5.0625 C 1.976562 -5.125 2.257812 -5.15625 2.5625 -5.15625 C 3.144531 -5.15625 3.578125 -5.03125 3.859375 -4.78125 C 4.148438 -4.539062 4.296875 -4.117188 4.296875 -3.515625 L 4.296875 -1.078125 C 4.296875 -0.898438 4.3125 -0.757812 4.34375 -0.65625 C 4.382812 -0.5625 4.445312 -0.492188 4.53125 -0.453125 C 4.625 -0.410156 4.738281 -0.390625 4.875 -0.390625 L 4.90625 -0.390625 L 4.90625 0 L 3.640625 0 L 3.484375 -0.8125 L 3.40625 -0.8125 C 3.269531 -0.632812 3.140625 -0.476562 3.015625 -0.34375 C 2.890625 -0.207031 2.742188 -0.0976562 2.578125 -0.015625 C 2.410156 0.0546875 2.195312 0.09375 1.9375 0.09375 Z M 2.15625 -0.484375 C 2.40625 -0.484375 2.625 -0.535156 2.8125 -0.640625 C 3 -0.753906 3.144531 -0.910156 3.25 -1.109375 C 3.351562 -1.304688 3.40625 -1.535156 3.40625 -1.796875 L 3.40625 -2.5625 L 2.796875 -2.53125 C 2.441406 -2.519531 2.160156 -2.46875 1.953125 -2.375 C 1.753906 -2.28125 1.609375 -2.148438 1.515625 -1.984375 C 1.429688 -1.816406 1.390625 -1.613281 1.390625 -1.375 C 1.390625 -1.175781 1.414062 -1.007812 1.46875 -0.875 C 1.53125 -0.75 1.613281 -0.648438 1.71875 -0.578125 C 1.832031 -0.515625 1.976562 -0.484375 2.15625 -0.484375 Z M 2.171875 -5.84375 C 2.265625 -5.957031 2.363281 -6.097656 2.46875 -6.265625 C 2.570312 -6.429688 2.671875 -6.597656 2.765625 -6.765625 C 2.859375 -6.929688 2.9375 -7.085938 3 -7.234375 L 4 -7.234375 L 4 -7.140625 C 3.945312 -7.054688 3.863281 -6.953125 3.75 -6.828125 C 3.632812 -6.703125 3.503906 -6.566406 3.359375 -6.421875 C 3.222656 -6.285156 3.082031 -6.15625 2.9375 -6.03125 C 2.789062 -5.90625 2.65625 -5.800781 2.53125 -5.71875 L 2.171875 -5.71875 Z "/>
</g>
<g id="glyph-0-4">
<path d="M 2.265625 0.09375 C 1.785156 0.09375 1.4375 -0.015625 1.21875 -0.234375 C 1 -0.453125 0.890625 -0.832031 0.890625 -1.375 L 0.890625 -4.515625 L 0.171875 -4.515625 L 0.171875 -4.890625 C 0.285156 -4.890625 0.410156 -4.914062 0.546875 -4.96875 C 0.691406 -5.019531 0.816406 -5.097656 0.921875 -5.203125 C 1.023438 -5.316406 1.109375 -5.453125 1.171875 -5.609375 C 1.242188 -5.773438 1.300781 -5.976562 1.34375 -6.21875 L 1.78125 -6.21875 L 1.78125 -5.0625 L 3.015625 -5.0625 L 3.015625 -4.515625 L 1.78125 -4.515625 L 1.78125 -1.34375 C 1.78125 -1.019531 1.847656 -0.78125 1.984375 -0.625 C 2.117188 -0.476562 2.289062 -0.40625 2.5 -0.40625 C 2.613281 -0.40625 2.71875 -0.410156 2.8125 -0.421875 C 2.90625 -0.429688 3.003906 -0.445312 3.109375 -0.46875 L 3.109375 -0.0625 C 3.023438 -0.0195312 2.898438 0.015625 2.734375 0.046875 C 2.566406 0.078125 2.410156 0.09375 2.265625 0.09375 Z "/>
</g>
<g id="glyph-0-5">
<path d="M 0.734375 -4.15625 C 0.691406 -4.289062 0.640625 -4.394531 0.578125 -4.46875 C 0.515625 -4.539062 0.441406 -4.585938 0.359375 -4.609375 C 0.273438 -4.640625 0.164062 -4.65625 0.03125 -4.65625 L 0.03125 -5.0625 L 2.390625 -5.0625 L 2.390625 -4.65625 L 2.28125 -4.65625 C 2.082031 -4.65625 1.9375 -4.617188 1.84375 -4.546875 C 1.75 -4.472656 1.703125 -4.359375 1.703125 -4.203125 C 1.703125 -4.160156 1.707031 -4.109375 1.71875 -4.046875 C 1.738281 -3.992188 1.757812 -3.929688 1.78125 -3.859375 L 2.421875 -2.078125 C 2.484375 -1.921875 2.539062 -1.753906 2.59375 -1.578125 C 2.65625 -1.398438 2.707031 -1.226562 2.75 -1.0625 C 2.800781 -0.90625 2.84375 -0.769531 2.875 -0.65625 C 2.90625 -0.789062 2.96875 -0.984375 3.0625 -1.234375 C 3.164062 -1.484375 3.257812 -1.722656 3.34375 -1.953125 L 4.015625 -3.796875 C 4.046875 -3.867188 4.066406 -3.941406 4.078125 -4.015625 C 4.097656 -4.085938 4.109375 -4.148438 4.109375 -4.203125 C 4.109375 -4.359375 4.054688 -4.472656 3.953125 -4.546875 C 3.847656 -4.617188 3.691406 -4.65625 3.484375 -4.65625 L 3.421875 -4.65625 L 3.421875 -5.0625 L 5.4375 -5.0625 L 5.4375 -4.65625 L 5.328125 -4.65625 C 5.203125 -4.65625 5.097656 -4.632812 5.015625 -4.59375 C 4.941406 -4.5625 4.875 -4.492188 4.8125 -4.390625 C 4.75 -4.285156 4.679688 -4.128906 4.609375 -3.921875 L 3.109375 0 L 2.25 0 Z "/>
</g>
<g id="glyph-0-6">
<path d="M 2.703125 0.09375 C 2.023438 0.09375 1.488281 -0.128906 1.09375 -0.578125 C 0.707031 -1.035156 0.515625 -1.671875 0.515625 -2.484375 C 0.515625 -3.367188 0.695312 -4.035156 1.0625 -4.484375 C 1.425781 -4.929688 1.941406 -5.15625 2.609375 -5.15625 C 3.222656 -5.15625 3.703125 -4.960938 4.046875 -4.578125 C 4.398438 -4.203125 4.578125 -3.640625 4.578125 -2.890625 L 4.578125 -2.46875 L 1.4375 -2.46875 C 1.445312 -1.78125 1.566406 -1.28125 1.796875 -0.96875 C 2.035156 -0.65625 2.382812 -0.5 2.84375 -0.5 C 3.164062 -0.5 3.441406 -0.566406 3.671875 -0.703125 C 3.898438 -0.835938 4.070312 -0.988281 4.1875 -1.15625 C 4.226562 -1.132812 4.269531 -1.097656 4.3125 -1.046875 C 4.351562 -0.992188 4.375 -0.925781 4.375 -0.84375 C 4.375 -0.71875 4.3125 -0.582031 4.1875 -0.4375 C 4.070312 -0.289062 3.890625 -0.164062 3.640625 -0.0625 C 3.398438 0.0390625 3.085938 0.09375 2.703125 0.09375 Z M 3.625 -2.96875 C 3.625 -3.476562 3.546875 -3.882812 3.390625 -4.1875 C 3.234375 -4.488281 2.96875 -4.640625 2.59375 -4.640625 C 2.25 -4.640625 1.976562 -4.492188 1.78125 -4.203125 C 1.59375 -3.921875 1.484375 -3.507812 1.453125 -2.96875 Z "/>
</g>
<g id="glyph-0-7">
<path d="M 0.171875 0 L 0.171875 -0.390625 L 0.25 -0.390625 C 0.394531 -0.390625 0.523438 -0.40625 0.640625 -0.4375 C 0.753906 -0.46875 0.84375 -0.53125 0.90625 -0.625 C 0.976562 -0.726562 1.015625 -0.878906 1.015625 -1.078125 L 1.015625 -6.140625 C 1.015625 -6.328125 0.976562 -6.460938 0.90625 -6.546875 C 0.832031 -6.640625 0.738281 -6.703125 0.625 -6.734375 C 0.507812 -6.765625 0.382812 -6.78125 0.25 -6.78125 L 0.171875 -6.78125 L 0.171875 -7.171875 L 1.90625 -7.171875 L 1.90625 -3.53125 C 1.90625 -3.445312 1.898438 -3.335938 1.890625 -3.203125 C 1.890625 -3.078125 1.882812 -2.945312 1.875 -2.8125 C 1.875 -2.675781 1.875 -2.5625 1.875 -2.46875 C 1.875 -2.382812 1.875 -2.34375 1.875 -2.34375 L 3.046875 -3.640625 C 3.179688 -3.785156 3.285156 -3.910156 3.359375 -4.015625 C 3.429688 -4.117188 3.484375 -4.207031 3.515625 -4.28125 C 3.546875 -4.351562 3.5625 -4.414062 3.5625 -4.46875 C 3.5625 -4.550781 3.523438 -4.601562 3.453125 -4.625 C 3.378906 -4.644531 3.265625 -4.65625 3.109375 -4.65625 L 3.109375 -5.0625 L 5.1875 -5.0625 L 5.1875 -4.65625 C 5.082031 -4.65625 4.972656 -4.632812 4.859375 -4.59375 C 4.753906 -4.5625 4.648438 -4.507812 4.546875 -4.4375 C 4.441406 -4.363281 4.332031 -4.269531 4.21875 -4.15625 C 4.101562 -4.039062 3.984375 -3.914062 3.859375 -3.78125 L 3.203125 -3.03125 L 4.453125 -1.171875 C 4.617188 -0.921875 4.78125 -0.726562 4.9375 -0.59375 C 5.101562 -0.457031 5.289062 -0.390625 5.5 -0.390625 L 5.53125 -0.390625 L 5.53125 0 L 5.390625 0 C 5.128906 0 4.90625 -0.0078125 4.71875 -0.03125 C 4.53125 -0.0507812 4.375 -0.0859375 4.25 -0.140625 C 4.132812 -0.203125 4.019531 -0.296875 3.90625 -0.421875 C 3.800781 -0.546875 3.679688 -0.710938 3.546875 -0.921875 L 2.609375 -2.390625 L 1.90625 -1.875 L 1.90625 -1.03125 C 1.90625 -0.84375 1.941406 -0.703125 2.015625 -0.609375 C 2.085938 -0.523438 2.179688 -0.46875 2.296875 -0.4375 C 2.410156 -0.40625 2.539062 -0.390625 2.6875 -0.390625 L 2.703125 -0.390625 L 2.703125 0 Z "/>
</g>
<g id="glyph-0-8">
<path d="M 2.703125 0.09375 C 2.023438 0.09375 1.488281 -0.117188 1.09375 -0.546875 C 0.707031 -0.984375 0.515625 -1.644531 0.515625 -2.53125 C 0.515625 -3.414062 0.703125 -4.070312 1.078125 -4.5 C 1.453125 -4.9375 2.003906 -5.15625 2.734375 -5.15625 C 3.410156 -5.15625 3.941406 -4.9375 4.328125 -4.5 C 4.722656 -4.070312 4.921875 -3.414062 4.921875 -2.53125 C 4.921875 -1.644531 4.734375 -0.984375 4.359375 -0.546875 C 3.984375 -0.117188 3.429688 0.09375 2.703125 0.09375 Z M 2.734375 -0.390625 C 3.046875 -0.390625 3.296875 -0.46875 3.484375 -0.625 C 3.671875 -0.789062 3.804688 -1.035156 3.890625 -1.359375 C 3.972656 -1.679688 4.015625 -2.070312 4.015625 -2.53125 C 4.015625 -3.238281 3.914062 -3.769531 3.71875 -4.125 C 3.519531 -4.476562 3.1875 -4.65625 2.71875 -4.65625 C 2.25 -4.65625 1.914062 -4.476562 1.71875 -4.125 C 1.53125 -3.769531 1.4375 -3.238281 1.4375 -2.53125 C 1.4375 -1.832031 1.53125 -1.300781 1.71875 -0.9375 C 1.914062 -0.570312 2.253906 -0.390625 2.734375 -0.390625 Z "/>
</g>
<g id="glyph-0-9">
<path d="M 0.3125 0 L 0.3125 -0.390625 L 0.34375 -0.390625 C 0.488281 -0.390625 0.617188 -0.40625 0.734375 -0.4375 C 0.847656 -0.46875 0.9375 -0.53125 1 -0.625 C 1.070312 -0.726562 1.109375 -0.878906 1.109375 -1.078125 L 1.109375 -4.015625 C 1.109375 -4.203125 1.070312 -4.34375 1 -4.4375 C 0.925781 -4.53125 0.832031 -4.585938 0.71875 -4.609375 C 0.601562 -4.640625 0.476562 -4.65625 0.34375 -4.65625 L 0.3125 -4.65625 L 0.3125 -5.0625 L 1.765625 -5.0625 L 1.9375 -4.125 L 1.984375 -4.125 C 2.066406 -4.3125 2.15625 -4.484375 2.25 -4.640625 C 2.34375 -4.796875 2.46875 -4.921875 2.625 -5.015625 C 2.789062 -5.109375 3.007812 -5.15625 3.28125 -5.15625 C 3.625 -5.15625 3.878906 -5.09375 4.046875 -4.96875 C 4.210938 -4.851562 4.296875 -4.6875 4.296875 -4.46875 C 4.296875 -4.269531 4.226562 -4.109375 4.09375 -3.984375 C 3.957031 -3.859375 3.734375 -3.796875 3.421875 -3.796875 C 3.421875 -3.972656 3.40625 -4.113281 3.375 -4.21875 C 3.34375 -4.320312 3.289062 -4.398438 3.21875 -4.453125 C 3.144531 -4.503906 3.046875 -4.53125 2.921875 -4.53125 C 2.742188 -4.53125 2.59375 -4.457031 2.46875 -4.3125 C 2.351562 -4.175781 2.257812 -4 2.1875 -3.78125 C 2.125 -3.570312 2.078125 -3.351562 2.046875 -3.125 C 2.015625 -2.894531 2 -2.691406 2 -2.515625 L 2 -1.03125 C 2 -0.84375 2.035156 -0.703125 2.109375 -0.609375 C 2.179688 -0.523438 2.273438 -0.46875 2.390625 -0.4375 C 2.503906 -0.40625 2.632812 -0.390625 2.78125 -0.390625 L 3.03125 -0.390625 L 3.03125 0 Z "/>
</g>
<g id="glyph-0-10">
<path d="M 1.359375 -3.828125 C 1.191406 -3.828125 1.050781 -3.875 0.9375 -3.96875 C 0.820312 -4.0625 0.765625 -4.226562 0.765625 -4.46875 C 0.765625 -4.707031 0.820312 -4.875 0.9375 -4.96875 C 1.050781 -5.0625 1.191406 -5.109375 1.359375 -5.109375 C 1.523438 -5.109375 1.664062 -5.0625 1.78125 -4.96875 C 1.894531 -4.875 1.953125 -4.707031 1.953125 -4.46875 C 1.953125 -4.226562 1.894531 -4.0625 1.78125 -3.96875 C 1.664062 -3.875 1.523438 -3.828125 1.359375 -3.828125 Z M 1.359375 0.0625 C 1.191406 0.0625 1.050781 0.015625 0.9375 -0.078125 C 0.820312 -0.171875 0.765625 -0.335938 0.765625 -0.578125 C 0.765625 -0.816406 0.820312 -0.984375 0.9375 -1.078125 C 1.050781 -1.171875 1.191406 -1.21875 1.359375 -1.21875 C 1.523438 -1.21875 1.664062 -1.171875 1.78125 -1.078125 C 1.894531 -0.984375 1.953125 -0.816406 1.953125 -0.578125 C 1.953125 -0.335938 1.894531 -0.171875 1.78125 -0.078125 C 1.664062 0.015625 1.523438 0.0625 1.359375 0.0625 Z "/>
</g>
<g id="glyph-0-11">
</g>
<g id="glyph-0-12">
<path d="M 0.390625 0 L 0.390625 -0.375 L 3.140625 -4.515625 L 1.65625 -4.515625 C 1.40625 -4.515625 1.238281 -4.453125 1.15625 -4.328125 C 1.070312 -4.203125 1 -4.007812 0.9375 -3.75 L 0.921875 -3.71875 L 0.53125 -3.71875 L 0.625 -5.0625 L 4.234375 -5.0625 L 4.234375 -4.671875 L 1.484375 -0.53125 L 3.203125 -0.53125 C 3.429688 -0.53125 3.582031 -0.609375 3.65625 -0.765625 C 3.738281 -0.929688 3.800781 -1.113281 3.84375 -1.3125 L 3.890625 -1.53125 L 4.296875 -1.53125 L 4.25 0 Z "/>
</g>
<g id="glyph-0-13">
<path d="M 0.21875 0 L 0.21875 -0.390625 L 0.34375 -0.390625 C 0.476562 -0.390625 0.601562 -0.40625 0.71875 -0.4375 C 0.832031 -0.46875 0.925781 -0.523438 1 -0.609375 C 1.070312 -0.703125 1.109375 -0.84375 1.109375 -1.03125 L 1.109375 -4.015625 C 1.109375 -4.203125 1.070312 -4.34375 1 -4.4375 C 0.925781 -4.53125 0.832031 -4.585938 0.71875 -4.609375 C 0.601562 -4.640625 0.476562 -4.65625 0.34375 -4.65625 L 0.3125 -4.65625 L 0.3125 -5.0625 L 2 -5.0625 L 2 -1.078125 C 2 -0.878906 2.03125 -0.726562 2.09375 -0.625 C 2.164062 -0.53125 2.257812 -0.46875 2.375 -0.4375 C 2.5 -0.40625 2.632812 -0.390625 2.78125 -0.390625 L 2.890625 -0.390625 L 2.890625 0 Z M 1.515625 -6 C 1.367188 -6 1.242188 -6.039062 1.140625 -6.125 C 1.035156 -6.21875 0.984375 -6.375 0.984375 -6.59375 C 0.984375 -6.8125 1.035156 -6.960938 1.140625 -7.046875 C 1.242188 -7.128906 1.367188 -7.171875 1.515625 -7.171875 C 1.660156 -7.171875 1.785156 -7.128906 1.890625 -7.046875 C 2.003906 -6.960938 2.0625 -6.8125 2.0625 -6.59375 C 2.0625 -6.375 2.003906 -6.21875 1.890625 -6.125 C 1.785156 -6.039062 1.660156 -6 1.515625 -6 Z "/>
</g>
<g id="glyph-0-14">
<path d="M 0.265625 0 L 0.265625 -0.390625 L 0.34375 -0.390625 C 0.488281 -0.390625 0.617188 -0.40625 0.734375 -0.4375 C 0.847656 -0.46875 0.9375 -0.53125 1 -0.625 C 1.070312 -0.726562 1.109375 -0.878906 1.109375 -1.078125 L 1.109375 -4.015625 C 1.109375 -4.203125 1.070312 -4.34375 1 -4.4375 C 0.9375 -4.53125 0.847656 -4.585938 0.734375 -4.609375 C 0.617188 -4.640625 0.492188 -4.65625 0.359375 -4.65625 L 0.3125 -4.65625 L 0.3125 -5.0625 L 1.84375 -5.0625 L 1.96875 -4.296875 L 2.015625 -4.296875 C 2.203125 -4.648438 2.414062 -4.878906 2.65625 -4.984375 C 2.90625 -5.097656 3.179688 -5.15625 3.484375 -5.15625 C 3.984375 -5.15625 4.367188 -5.007812 4.640625 -4.71875 C 4.921875 -4.425781 5.0625 -3.953125 5.0625 -3.296875 L 5.0625 -1.078125 C 5.0625 -0.878906 5.09375 -0.726562 5.15625 -0.625 C 5.21875 -0.53125 5.300781 -0.46875 5.40625 -0.4375 C 5.507812 -0.40625 5.632812 -0.390625 5.78125 -0.390625 L 5.828125 -0.390625 L 5.828125 0 L 4.1875 0 L 4.1875 -3.25 C 4.1875 -3.664062 4.109375 -3.984375 3.953125 -4.203125 C 3.796875 -4.429688 3.523438 -4.546875 3.140625 -4.546875 C 2.859375 -4.546875 2.632812 -4.472656 2.46875 -4.328125 C 2.300781 -4.191406 2.179688 -4.003906 2.109375 -3.765625 C 2.035156 -3.535156 2 -3.285156 2 -3.015625 L 2 -1.03125 C 2 -0.84375 2.03125 -0.703125 2.09375 -0.609375 C 2.164062 -0.523438 2.257812 -0.46875 2.375 -0.4375 C 2.488281 -0.40625 2.613281 -0.390625 2.75 -0.390625 L 2.796875 -0.390625 L 2.796875 0 Z "/>
</g>
<g id="glyph-0-15">
<path d="M 0.359375 1.828125 C 0.679688 1.828125 0.957031 1.773438 1.1875 1.671875 C 1.414062 1.578125 1.613281 1.445312 1.78125 1.28125 C 1.945312 1.113281 2.085938 0.914062 2.203125 0.6875 C 2.316406 0.46875 2.410156 0.226562 2.484375 -0.03125 L 0.734375 -4.15625 C 0.679688 -4.289062 0.625 -4.394531 0.5625 -4.46875 C 0.507812 -4.539062 0.441406 -4.585938 0.359375 -4.609375 C 0.285156 -4.640625 0.1875 -4.65625 0.0625 -4.65625 L 0.03125 -4.65625 L 0.03125 -5.0625 L 2.296875 -5.0625 L 2.296875 -4.65625 L 2.28125 -4.65625 C 2.082031 -4.65625 1.9375 -4.617188 1.84375 -4.546875 C 1.75 -4.472656 1.703125 -4.359375 1.703125 -4.203125 C 1.703125 -4.160156 1.707031 -4.109375 1.71875 -4.046875 C 1.738281 -3.992188 1.757812 -3.929688 1.78125 -3.859375 L 2.46875 -2.1875 C 2.53125 -2.039062 2.59375 -1.878906 2.65625 -1.703125 C 2.71875 -1.523438 2.769531 -1.359375 2.8125 -1.203125 C 2.863281 -1.046875 2.898438 -0.914062 2.921875 -0.8125 C 2.960938 -0.988281 3.019531 -1.175781 3.09375 -1.375 C 3.164062 -1.570312 3.234375 -1.765625 3.296875 -1.953125 L 3.9375 -3.796875 C 3.96875 -3.867188 3.988281 -3.941406 4 -4.015625 C 4.007812 -4.085938 4.015625 -4.148438 4.015625 -4.203125 C 4.015625 -4.359375 3.960938 -4.472656 3.859375 -4.546875 C 3.753906 -4.617188 3.597656 -4.65625 3.390625 -4.65625 L 3.375 -4.65625 L 3.375 -5.0625 L 5.328125 -5.0625 L 5.328125 -4.65625 L 5.296875 -4.65625 C 5.179688 -4.65625 5.082031 -4.632812 5 -4.59375 C 4.914062 -4.5625 4.84375 -4.492188 4.78125 -4.390625 C 4.726562 -4.285156 4.664062 -4.128906 4.59375 -3.921875 L 3.15625 0.03125 C 2.988281 0.5 2.828125 0.875 2.671875 1.15625 C 2.523438 1.445312 2.359375 1.671875 2.171875 1.828125 C 1.984375 1.992188 1.75 2.109375 1.46875 2.171875 C 1.195312 2.234375 0.851562 2.265625 0.4375 2.265625 L 0.359375 2.265625 Z "/>
</g>
<g id="glyph-0-16">
<path d="M 0.28125 1.0625 C 0.488281 0.988281 0.65625 0.910156 0.78125 0.828125 C 0.914062 0.742188 1.015625 0.648438 1.078125 0.546875 C 1.148438 0.441406 1.1875 0.328125 1.1875 0.203125 C 1.1875 0.109375 1.148438 0.0390625 1.078125 0 C 1.003906 -0.0507812 0.921875 -0.0976562 0.828125 -0.140625 C 0.742188 -0.191406 0.664062 -0.253906 0.59375 -0.328125 C 0.519531 -0.398438 0.484375 -0.507812 0.484375 -0.65625 C 0.484375 -0.84375 0.539062 -0.984375 0.65625 -1.078125 C 0.78125 -1.171875 0.929688 -1.21875 1.109375 -1.21875 C 1.296875 -1.21875 1.460938 -1.144531 1.609375 -1 C 1.753906 -0.863281 1.828125 -0.660156 1.828125 -0.390625 C 1.828125 0.00390625 1.707031 0.367188 1.46875 0.703125 C 1.238281 1.035156 0.84375 1.285156 0.28125 1.453125 Z "/>
</g>
<g id="glyph-0-17">
<path d="M 0.265625 0 L 0.265625 -0.390625 L 0.390625 -0.390625 C 0.535156 -0.390625 0.660156 -0.40625 0.765625 -0.4375 C 0.867188 -0.46875 0.953125 -0.53125 1.015625 -0.625 C 1.078125 -0.726562 1.109375 -0.878906 1.109375 -1.078125 L 1.109375 -4.015625 C 1.109375 -4.203125 1.078125 -4.34375 1.015625 -4.4375 C 0.953125 -4.53125 0.863281 -4.585938 0.75 -4.609375 C 0.644531 -4.640625 0.523438 -4.65625 0.390625 -4.65625 L 0.359375 -4.65625 L 0.359375 -5.0625 L 1.84375 -5.0625 L 1.96875 -4.296875 L 2.015625 -4.296875 C 2.203125 -4.648438 2.410156 -4.878906 2.640625 -4.984375 C 2.878906 -5.097656 3.144531 -5.15625 3.4375 -5.15625 C 3.632812 -5.15625 3.820312 -5.125 4 -5.0625 C 4.1875 -5.007812 4.347656 -4.921875 4.484375 -4.796875 C 4.617188 -4.671875 4.722656 -4.503906 4.796875 -4.296875 L 4.875 -4.296875 C 5.0625 -4.648438 5.28125 -4.878906 5.53125 -4.984375 C 5.789062 -5.097656 6.066406 -5.15625 6.359375 -5.15625 C 6.847656 -5.15625 7.226562 -5.007812 7.5 -4.71875 C 7.769531 -4.425781 7.90625 -3.953125 7.90625 -3.296875 L 7.90625 -1.078125 C 7.90625 -0.878906 7.9375 -0.726562 8 -0.625 C 8.0625 -0.53125 8.144531 -0.46875 8.25 -0.4375 C 8.363281 -0.40625 8.488281 -0.390625 8.625 -0.390625 L 8.65625 -0.390625 L 8.65625 0 L 7.015625 0 L 7.015625 -3.25 C 7.015625 -3.664062 6.9375 -3.984375 6.78125 -4.203125 C 6.632812 -4.429688 6.378906 -4.546875 6.015625 -4.546875 C 5.765625 -4.546875 5.5625 -4.476562 5.40625 -4.34375 C 5.25 -4.21875 5.132812 -4.046875 5.0625 -3.828125 C 5 -3.617188 4.96875 -3.390625 4.96875 -3.140625 L 4.96875 -1.078125 C 4.96875 -0.878906 5 -0.726562 5.0625 -0.625 C 5.125 -0.53125 5.210938 -0.46875 5.328125 -0.4375 C 5.441406 -0.40625 5.566406 -0.390625 5.703125 -0.390625 L 5.734375 -0.390625 L 5.734375 0 L 4.09375 0 L 4.09375 -3.25 C 4.09375 -3.664062 4.015625 -3.984375 3.859375 -4.203125 C 3.710938 -4.429688 3.457031 -4.546875 3.09375 -4.546875 C 2.820312 -4.546875 2.601562 -4.472656 2.4375 -4.328125 C 2.28125 -4.191406 2.164062 -4.003906 2.09375 -3.765625 C 2.03125 -3.535156 2 -3.285156 2 -3.015625 L 2 -1.03125 C 2 -0.84375 2.035156 -0.703125 2.109375 -0.609375 C 2.179688 -0.523438 2.273438 -0.46875 2.390625 -0.4375 C 2.503906 -0.40625 2.632812 -0.390625 2.78125 -0.390625 L 2.796875 -0.390625 L 2.796875 0 Z "/>
</g>
<g id="glyph-0-18">
<path d="M 0.046875 0 L 0.046875 -0.390625 L 0.125 -0.390625 C 0.28125 -0.390625 0.410156 -0.40625 0.515625 -0.4375 C 0.617188 -0.476562 0.722656 -0.539062 0.828125 -0.625 C 0.929688 -0.71875 1.039062 -0.84375 1.15625 -1 L 2.34375 -2.53125 L 1.15625 -4.15625 C 1.070312 -4.269531 0.984375 -4.363281 0.890625 -4.4375 C 0.796875 -4.507812 0.703125 -4.5625 0.609375 -4.59375 C 0.523438 -4.632812 0.4375 -4.65625 0.34375 -4.65625 L 0.21875 -4.65625 L 0.21875 -5.0625 L 2.625 -5.0625 L 2.625 -4.65625 L 2.59375 -4.65625 C 2.382812 -4.65625 2.242188 -4.628906 2.171875 -4.578125 C 2.097656 -4.523438 2.0625 -4.460938 2.0625 -4.390625 C 2.0625 -4.328125 2.078125 -4.265625 2.109375 -4.203125 C 2.148438 -4.140625 2.207031 -4.054688 2.28125 -3.953125 L 2.890625 -3.109375 L 3.390625 -3.8125 C 3.453125 -3.914062 3.503906 -4.015625 3.546875 -4.109375 C 3.597656 -4.210938 3.625 -4.304688 3.625 -4.390625 C 3.625 -4.503906 3.570312 -4.578125 3.46875 -4.609375 C 3.375 -4.640625 3.253906 -4.65625 3.109375 -4.65625 L 3.09375 -4.65625 L 3.09375 -5.0625 L 5.15625 -5.0625 L 5.15625 -4.65625 L 5.0625 -4.65625 C 4.945312 -4.65625 4.835938 -4.640625 4.734375 -4.609375 C 4.640625 -4.585938 4.539062 -4.53125 4.4375 -4.4375 C 4.34375 -4.351562 4.234375 -4.226562 4.109375 -4.0625 L 3.140625 -2.765625 L 4.53125 -0.890625 C 4.625 -0.773438 4.710938 -0.675781 4.796875 -0.59375 C 4.878906 -0.519531 4.960938 -0.46875 5.046875 -0.4375 C 5.128906 -0.40625 5.207031 -0.390625 5.28125 -0.390625 L 5.40625 -0.390625 L 5.40625 0 L 2.96875 0 L 2.96875 -0.390625 L 3.015625 -0.390625 C 3.203125 -0.390625 3.34375 -0.414062 3.4375 -0.46875 C 3.539062 -0.53125 3.59375 -0.609375 3.59375 -0.703125 C 3.59375 -0.773438 3.566406 -0.851562 3.515625 -0.9375 C 3.460938 -1.019531 3.367188 -1.160156 3.234375 -1.359375 L 2.59375 -2.203125 L 1.9375 -1.28125 C 1.875 -1.207031 1.816406 -1.113281 1.765625 -1 C 1.710938 -0.894531 1.6875 -0.789062 1.6875 -0.6875 C 1.6875 -0.582031 1.726562 -0.503906 1.8125 -0.453125 C 1.90625 -0.410156 2.054688 -0.390625 2.265625 -0.390625 L 2.296875 -0.390625 L 2.296875 0 Z "/>
</g>
<g id="glyph-0-19">
<path d="M 0.25 0 L 0.25 -0.390625 L 0.375 -0.390625 C 0.519531 -0.390625 0.648438 -0.40625 0.765625 -0.4375 C 0.878906 -0.46875 0.972656 -0.53125 1.046875 -0.625 C 1.117188 -0.726562 1.15625 -0.878906 1.15625 -1.078125 L 1.15625 -4.609375 L 0.296875 -4.609375 L 0.296875 -5.0625 L 1.15625 -5.0625 L 1.15625 -5.53125 C 1.15625 -6.09375 1.300781 -6.519531 1.59375 -6.8125 C 1.894531 -7.113281 2.304688 -7.265625 2.828125 -7.265625 C 3.148438 -7.265625 3.40625 -7.234375 3.59375 -7.171875 C 3.789062 -7.117188 3.929688 -7.039062 4.015625 -6.9375 C 4.097656 -6.84375 4.140625 -6.734375 4.140625 -6.609375 C 4.140625 -6.492188 4.101562 -6.394531 4.03125 -6.3125 C 3.96875 -6.238281 3.878906 -6.179688 3.765625 -6.140625 C 3.648438 -6.097656 3.519531 -6.078125 3.375 -6.078125 C 3.375 -6.203125 3.351562 -6.320312 3.3125 -6.4375 C 3.269531 -6.550781 3.203125 -6.644531 3.109375 -6.71875 C 3.023438 -6.789062 2.90625 -6.828125 2.75 -6.828125 C 2.476562 -6.828125 2.289062 -6.722656 2.1875 -6.515625 C 2.082031 -6.304688 2.03125 -6.003906 2.03125 -5.609375 L 2.03125 -5.0625 L 3.375 -5.0625 L 3.375 -4.609375 L 2.03125 -4.609375 L 2.03125 -1.078125 C 2.03125 -0.878906 2.066406 -0.726562 2.140625 -0.625 C 2.210938 -0.53125 2.304688 -0.46875 2.421875 -0.4375 C 2.546875 -0.40625 2.675781 -0.390625 2.8125 -0.390625 L 3.171875 -0.390625 L 3.171875 0 Z "/>
</g>
<g id="glyph-0-20">
<path d="M 2.1875 2.265625 C 1.53125 2.265625 1.035156 2.140625 0.703125 1.890625 C 0.378906 1.648438 0.21875 1.316406 0.21875 0.890625 C 0.21875 0.640625 0.269531 0.429688 0.375 0.265625 C 0.488281 0.0976562 0.632812 -0.03125 0.8125 -0.125 C 0.988281 -0.21875 1.179688 -0.285156 1.390625 -0.328125 C 1.265625 -0.378906 1.144531 -0.46875 1.03125 -0.59375 C 0.925781 -0.726562 0.875 -0.894531 0.875 -1.09375 C 0.875 -1.28125 0.921875 -1.441406 1.015625 -1.578125 C 1.117188 -1.722656 1.273438 -1.859375 1.484375 -1.984375 C 1.210938 -2.097656 1.003906 -2.285156 0.859375 -2.546875 C 0.710938 -2.804688 0.640625 -3.09375 0.640625 -3.40625 C 0.640625 -3.945312 0.785156 -4.375 1.078125 -4.6875 C 1.378906 -5 1.828125 -5.15625 2.421875 -5.15625 C 2.640625 -5.15625 2.847656 -5.125 3.046875 -5.0625 C 3.253906 -5 3.398438 -4.925781 3.484375 -4.84375 C 3.554688 -4.90625 3.632812 -4.976562 3.71875 -5.0625 C 3.800781 -5.144531 3.898438 -5.210938 4.015625 -5.265625 C 4.140625 -5.316406 4.269531 -5.34375 4.40625 -5.34375 C 4.59375 -5.34375 4.734375 -5.296875 4.828125 -5.203125 C 4.921875 -5.109375 4.96875 -4.992188 4.96875 -4.859375 C 4.96875 -4.722656 4.925781 -4.609375 4.84375 -4.515625 C 4.769531 -4.421875 4.644531 -4.375 4.46875 -4.375 C 4.46875 -4.4375 4.445312 -4.503906 4.40625 -4.578125 C 4.363281 -4.648438 4.28125 -4.6875 4.15625 -4.6875 C 4.070312 -4.6875 4 -4.675781 3.9375 -4.65625 C 3.875 -4.644531 3.8125 -4.617188 3.75 -4.578125 C 3.851562 -4.441406 3.9375 -4.285156 4 -4.109375 C 4.070312 -3.929688 4.109375 -3.707031 4.109375 -3.4375 C 4.109375 -2.96875 3.96875 -2.578125 3.6875 -2.265625 C 3.414062 -1.960938 2.992188 -1.8125 2.421875 -1.8125 C 2.335938 -1.8125 2.25 -1.816406 2.15625 -1.828125 C 2.0625 -1.835938 1.984375 -1.847656 1.921875 -1.859375 C 1.796875 -1.796875 1.6875 -1.71875 1.59375 -1.625 C 1.507812 -1.53125 1.46875 -1.410156 1.46875 -1.265625 C 1.46875 -1.148438 1.503906 -1.0625 1.578125 -1 C 1.648438 -0.9375 1.8125 -0.90625 2.0625 -0.90625 L 3.125 -0.90625 C 3.5 -0.90625 3.800781 -0.84375 4.03125 -0.71875 C 4.257812 -0.59375 4.425781 -0.425781 4.53125 -0.21875 C 4.632812 -0.0078125 4.6875 0.226562 4.6875 0.5 C 4.6875 1.039062 4.484375 1.46875 4.078125 1.78125 C 3.671875 2.101562 3.039062 2.265625 2.1875 2.265625 Z M 2.203125 1.796875 C 2.648438 1.796875 2.992188 1.75 3.234375 1.65625 C 3.484375 1.5625 3.65625 1.425781 3.75 1.25 C 3.851562 1.070312 3.90625 0.875 3.90625 0.65625 C 3.90625 0.363281 3.820312 0.171875 3.65625 0.078125 C 3.5 -0.015625 3.257812 -0.0625 2.9375 -0.0625 L 2.015625 -0.0625 C 1.835938 -0.0625 1.671875 -0.0390625 1.515625 0 C 1.359375 0.0507812 1.226562 0.140625 1.125 0.265625 C 1.03125 0.390625 0.984375 0.578125 0.984375 0.828125 C 0.984375 1.015625 1.015625 1.179688 1.078125 1.328125 C 1.148438 1.472656 1.273438 1.585938 1.453125 1.671875 C 1.628906 1.753906 1.878906 1.796875 2.203125 1.796875 Z M 2.390625 -2.265625 C 2.597656 -2.265625 2.757812 -2.304688 2.875 -2.390625 C 3 -2.472656 3.085938 -2.597656 3.140625 -2.765625 C 3.203125 -2.941406 3.234375 -3.164062 3.234375 -3.4375 C 3.234375 -3.726562 3.203125 -3.960938 3.140625 -4.140625 C 3.085938 -4.328125 3 -4.460938 2.875 -4.546875 C 2.75 -4.640625 2.582031 -4.6875 2.375 -4.6875 C 2.175781 -4.6875 2.015625 -4.640625 1.890625 -4.546875 C 1.765625 -4.460938 1.671875 -4.328125 1.609375 -4.140625 C 1.554688 -3.953125 1.53125 -3.71875 1.53125 -3.4375 C 1.53125 -3.03125 1.597656 -2.734375 1.734375 -2.546875 C 1.867188 -2.359375 2.085938 -2.265625 2.390625 -2.265625 Z "/>
</g>
<g id="glyph-0-21">
<path d="M 0.125 0 L 0.125 -0.390625 L 0.25 -0.390625 C 0.394531 -0.390625 0.523438 -0.40625 0.640625 -0.4375 C 0.753906 -0.46875 0.84375 -0.53125 0.90625 -0.625 C 0.976562 -0.726562 1.015625 -0.878906 1.015625 -1.078125 L 1.015625 -6.140625 C 1.015625 -6.328125 0.976562 -6.460938 0.90625 -6.546875 C 0.832031 -6.640625 0.738281 -6.703125 0.625 -6.734375 C 0.507812 -6.765625 0.382812 -6.78125 0.25 -6.78125 L 0.125 -6.78125 L 0.125 -7.171875 L 1.90625 -7.171875 L 1.90625 -1.078125 C 1.90625 -0.878906 1.9375 -0.726562 2 -0.625 C 2.070312 -0.53125 2.164062 -0.46875 2.28125 -0.4375 C 2.40625 -0.40625 2.539062 -0.390625 2.6875 -0.390625 L 2.796875 -0.390625 L 2.796875 0 Z "/>
</g>
</g>
</defs>
<g fill="rgb(100%, 100%, 100%)" fill-opacity="1">
<use xlink:href="#glyph-0-0" x="30" y="30.095703"/>
<use xlink:href="#glyph-0-1" x="35" y="30.095703"/>
<use xlink:href="#glyph-0-2" x="40" y="30.095703"/>
<use xlink:href="#glyph-0-3" x="43" y="30.095703"/>
<use xlink:href="#glyph-0-4" x="48" y="30.095703"/>
<use xlink:href="#glyph-0-5" x="51" y="30.095703"/>
<use xlink:href="#glyph-0-6" x="56" y="30.095703"/>
<use xlink:href="#glyph-0-7" x="61" y="30.095703"/>
<use xlink:href="#glyph-0-4" x="67" y="30.095703"/>
<use xlink:href="#glyph-0-8" x="70" y="30.095703"/>
<use xlink:href="#glyph-0-9" x="75" y="30.095703"/>
<use xlink:href="#glyph-0-10" x="79" y="30.095703"/>
<use xlink:href="#glyph-0-11" x="82" y="30.095703"/>
<use xlink:href="#glyph-0-1" x="84" y="30.095703"/>
<use xlink:href="#glyph-0-12" x="89" y="30.095703"/>
<use xlink:href="#glyph-0-11" x="94" y="30.095703"/>
<use xlink:href="#glyph-0-13" x="96" y="30.095703"/>
<use xlink:href="#glyph-0-9" x="99" y="30.095703"/>
<use xlink:href="#glyph-0-3" x="103" y="30.095703"/>
<use xlink:href="#glyph-0-14" x="108" y="30.095703"/>
<use xlink:href="#glyph-0-15" x="114" y="30.095703"/>
<use xlink:href="#glyph-0-16" x="118" y="30.095703"/>
<use xlink:href="#glyph-0-11" x="120" y="30.095703"/>
<use xlink:href="#glyph-0-1" x="122" y="30.095703"/>
<use xlink:href="#glyph-0-17" x="127" y="30.095703"/>
<use xlink:href="#glyph-0-13" x="136" y="30.095703"/>
<use xlink:href="#glyph-0-4" x="139" y="30.095703"/>
<use xlink:href="#glyph-0-11" x="142" y="30.095703"/>
<use xlink:href="#glyph-0-1" x="144" y="30.095703"/>
<use xlink:href="#glyph-0-11" x="149" y="30.095703"/>
<use xlink:href="#glyph-0-17" x="151" y="30.095703"/>
<use xlink:href="#glyph-0-3" x="160" y="30.095703"/>
<use xlink:href="#glyph-0-4" x="165" y="30.095703"/>
<use xlink:href="#glyph-0-9" x="168" y="30.095703"/>
<use xlink:href="#glyph-0-13" x="172" y="30.095703"/>
<use xlink:href="#glyph-0-18" x="175" y="30.095703"/>
<use xlink:href="#glyph-0-11" x="180" y="30.095703"/>
<use xlink:href="#glyph-0-14" x="182" y="30.095703"/>
<use xlink:href="#glyph-0-6" x="188" y="30.095703"/>
<use xlink:href="#glyph-0-17" x="193" y="30.095703"/>
<use xlink:href="#glyph-0-11" x="202" y="30.095703"/>
<use xlink:href="#glyph-0-19" x="204" y="30.095703"/>
<use xlink:href="#glyph-0-8" x="207" y="30.095703"/>
<use xlink:href="#glyph-0-9" x="212" y="30.095703"/>
<use xlink:href="#glyph-0-20" x="216" y="30.095703"/>
<use xlink:href="#glyph-0-1" x="221" y="30.095703"/>
<use xlink:href="#glyph-0-4" x="226" y="30.095703"/>
<use xlink:href="#glyph-0-11" x="229" y="30.095703"/>
<use xlink:href="#glyph-0-6" x="231" y="30.095703"/>
<use xlink:href="#glyph-0-21" x="236" y="30.095703"/>
</g>
</svg>
